<?xml version="1.0" encoding="utf-8"?>
<!-- Generator: Adobe Illustrator 28.0.0, SVG Export Plug-In . SVG Version: 6.00 Build 0)  -->
<svg version="1.1" id="_イヤー_2" xmlns="http://www.w3.org/2000/svg" xmlns:xlink="http://www.w3.org/1999/xlink" x="0px"
	 y="0px" viewBox="0 0 7856.8 934.1" style="enable-background:new 0 0 7856.8 934.1;" xml:space="preserve">
<style type="text/css">
	.st0{fill:#FFFFFF;}
</style>
<g>
	<g>
		<path class="st0" d="M6805.9,244.8v-51.6c0-2.2-1.8-3.9-3.9-3.9h-363.6c-105.5,0-157.1,65-157.1,149.6v257.2
			c0,52.3-24.8,90-77.3,90h-341.8c-2.2,0-3.9,1.7-3.9,3.9v51.7c0,2.2,1.8,3.9,3.9,3.9h381.2c105.5,0,157.2-64.9,157.2-149.5V338.8
			c0-52.4,24.8-90.1,77.2-90.1h324.1C6804.2,248.7,6805.9,246.9,6805.9,244.8z"/>
		<path class="st0" d="M5727.8,189.4h-657.9c-2.2,0-3.9,1.7-3.9,3.9v51.6c0,2.2,1.7,3.9,3.9,3.9h618.3c52.4,0,77.3,37.7,77.3,90.1
			s-24.8,90.1-77.3,90.1h-489.1c-75.9,0-133.1,63.8-133.1,148.4v164.3c0,2.2,1.8,3.9,3.9,3.9h111.5c2.2,0,3.9-1.7,3.9-3.9V577.4
			c0-52.4,30.2-89,73.5-89h468.9c105.5,0,157.1-64.8,157.1-149.4S5833.3,189.4,5727.8,189.4z"/>
		<path class="st0" d="M7665.3,626.7l-111.5-0.1c-2.2,0-4-1.8-4-3.9V248.5c0-57.5-39.8-76.3-95.7-41.8l-670.4,411.7
			c-26.3,16.2-35.2,34.5-28.8,47.9c5.5,11.7,20,19.7,49,19.7l622.7,0.1c1.7,0.2,3.1,1.4,3.5,3v52.5c0,2.2,1.8,4,3.9,4h111.9
			c2.1,0,3.9-1.8,3.9-4v-51.4c0-2.2,1.8-4,3.9-4h111.6c2.2,0,4-1.8,4-3.9v-51.6C7669.3,628.5,7667.5,626.7,7665.3,626.7z
			 M7430.2,622.5c0,2.2-1.8,4-3.9,4h-521.9c-4.2,0-6.5-1.1-7.1-2.7c-0.6-2.4,0.7-4.2,3.8-6.4l519.5-319.8c3.6-2.2,9.6-1.8,9.6,5.3
			V622.5z"/>
	</g>
	<g>
		<path class="st0" d="M7777.7,652.9c27.6,0,46.1,20.5,46.1,46.4c0,26-18.6,46.4-46.1,46.4c-27.6,0-46.6-20.3-46.6-46.4
			C7731.1,673.4,7750.1,652.9,7777.7,652.9z M7777.7,738.8c23.4,0,38.9-17.7,38.9-39.5c0-21.6-15.5-39.3-38.9-39.3
			c-23.8,0-39.1,17.7-39.1,39.3C7738.5,721.1,7753.8,738.8,7777.7,738.8z M7759.3,672.3h21.2c9.8,0,17.1,2.9,17.1,13.9
			c0,6.4-3.1,11-9.8,13v0.2c3.5,0.9,5.9,3.5,7.7,9.7c1.7,6,3.7,11.7,5.2,16.8h-9.8c-1.3-4-3.1-10.8-4.2-14.6
			c-1.5-6.2-3.3-8.2-11.4-8.2h-6.3V726h-9.6v-53.7H7759.3z M7768.9,696.4h8.5c6.8,0,10.9-2.7,10.9-8.8c0-7.3-5-8.4-10.3-8.4h-9.2
			v17.2H7768.9z"/>
	</g>
</g>
<rect x="4591.5" y="3.8" class="st0" width="21.8" height="927.2"/>
<g>
	<g>
		<g>
			<path class="st0" d="M2665.8,745.6c82.6,0,149.5-66.9,149.5-149.5V338.8c0-49.8,40.4-90.1,90.1-90.1h290.1c2.2,0,4-1.8,4-4v-51.5
				c0-2.2-1.8-4-4-4h-349.6c-82.6,0-149.5,66.9-149.5,149.5V596c0,49.8-40.4,90.1-90.1,90.1h-286.1c-2.2,0-4,1.8-4,4v51.5
				c0,2.2,1.8,4,4,4H2665.8z"/>
		</g>
	</g>
	<path class="st0" d="M3319.2,398.3c0-75,0-174.4,0-205c0-2.2,1.8-4,4-4h790c2.2,0,4,1.8,4,4v51.5c0,2.2-1.8,4-4,4H3442
		c-2.2,0-4,1.8-4,4v133.6c0,23.6,19.2,42.8,42.8,42.8h499.7c87.4,0,158.3,70.9,158.3,158.3s-70.9,158.3-158.3,158.3h-657.4
		c-2.2,0-4-1.8-4-4v-51.5c0-2.2,1.8-4,4-4c149.5,0,597.9,0,597.9,0c54.5,0,98.7-44.1,98.9-98.6c0.2-54.6-45.1-99.3-99.7-99.3h-511
		C3359.6,488.4,3319.2,448,3319.2,398.3z"/>
	<path class="st0" d="M2146.2,428.9c49.8,0,90.1-40.3,90.1-90.1s-40.3-90.1-90.1-90.1h-606.1c-2.2,0-4-1.8-4-4v-51.5
		c0-2.2,1.8-4,4-4h665.5c82.6,0,149.5,67,149.5,149.5s-67,149.5-149.5,149.5h-460.5l0,0c-49.8,0-90.1,40.4-90.1,90.1v163.1
		c0,2.2-1.8,4-4,4h-110.9c-2.2,0-4-1.8-4-4c0-44.4,0-163.2,0-163.2c0-82.6,66.9-149.5,149.5-149.5L2146.2,428.9z"/>
</g>
<g>
	<path class="st0" d="M4247.2,652.9c27.6,0,46.1,20.5,46.1,46.4c0,26-18.6,46.4-46.1,46.4c-27.6,0-46.6-20.3-46.6-46.4
		C4200.6,673.4,4219.7,652.9,4247.2,652.9z M4247.2,738.8c23.4,0,38.9-17.7,38.9-39.5c0-21.6-15.5-39.3-38.9-39.3
		c-23.8,0-39.1,17.7-39.1,39.3C4208.1,721.1,4223.4,738.8,4247.2,738.8z M4228.9,672.3h21.2c9.8,0,17.1,2.9,17.1,13.9
		c0,6.4-3.1,11-9.8,13v0.2c3.5,0.9,5.9,3.5,7.7,9.7c1.7,6,3.7,11.7,5.2,16.8h-9.8c-1.3-4-3.1-10.8-4.2-14.6
		c-1.5-6.2-3.3-8.2-11.4-8.2h-6.3V726h-9.6v-53.7H4228.9z M4238.5,696.4h8.5c6.8,0,10.9-2.7,10.9-8.8c0-7.3-5-8.4-10.3-8.4h-9.2
		v17.2H4238.5z"/>
</g>
<g>
	<g>
		<path class="st0" d="M474.1,3.8V869L670,931.1V205.6c0-34.2,15.2-56.9,39.7-49.1c32,8.9,38.2,40.4,38.2,74.2v289.7
			c121.9,59,217.9,0,217.9-155.8c0-159.1-56.3-230-221.9-287C678.5,55.9,557.5,19.2,474.1,3.8"/>
		<path class="st0" d="M707.2,804.6l314.6-112c35.6-13.2,41-31.1,12.2-40.5c-29.3-9.6-81.5-6.9-117.5,6.1L707.2,732V614.1l12-4
			c0,0,60.6-21.5,145.9-30.7c85.1-9.3,189.4,1.2,271.5,32.1c92.4,29.4,102.7,72.2,79.4,102c-23.7,29.5-81.2,50.8-81.2,50.8
			L707.2,917.9V804.6z"/>
		<path class="st0" d="M115.1,792.7C20.4,766.3,4.6,710.5,47.8,678.3c39.9-29.4,107.8-51.6,107.8-51.6l280.6-100.1v113.9
			l-201.8,72.3c-35.7,12.8-41.1,30.8-12.3,40.2c29.3,9.8,81.3,7.1,117.1-6l97-35v101.6c-6.3,1.1-13.2,2.1-19.6,3.2
			C319.9,833,216.9,826.4,115.1,792.7z"/>
	</g>
	<g>
		<path class="st0" d="M1149.5,838.3c27.6,0,46.1,20.5,46.1,46.4c0,26-18.6,46.4-46.1,46.4c-27.6,0-46.6-20.3-46.6-46.4
			C1102.9,858.9,1122,838.3,1149.5,838.3z M1149.5,924.2c23.4,0,38.9-17.7,38.9-39.5c0-21.6-15.5-39.3-38.9-39.3
			c-23.8,0-39.1,17.7-39.1,39.3C1110.4,906.6,1125.7,924.2,1149.5,924.2z M1131.1,857.8h21.2c9.8,0,17.1,2.9,17.1,13.9
			c0,6.4-3.1,11-9.8,13v0.2c3.5,0.9,5.9,3.5,7.7,9.7c1.7,6,3.7,11.7,5.2,16.8h-9.8c-1.3-4-3.1-10.8-4.2-14.6
			c-1.5-6.2-3.3-8.2-11.4-8.2h-6.3v22.7h-9.6L1131.1,857.8L1131.1,857.8z M1140.8,881.8h8.5c6.8,0,10.9-2.7,10.9-8.8
			c0-7.3-5-8.4-10.3-8.4h-9.2L1140.8,881.8L1140.8,881.8z"/>
	</g>
</g>
</svg>
