<?xml version="1.0" encoding="utf-8"?>
<!-- Generator: Adobe Illustrator 21.1.0, SVG Export Plug-In . SVG Version: 6.00 Build 0)  -->
<svg version="1.1" id="レイヤー_1" xmlns="http://www.w3.org/2000/svg" xmlns:xlink="http://www.w3.org/1999/xlink" x="0px"
	 y="0px" viewBox="0 0 198.3 60" style="enable-background:new 0 0 198.3 60;" xml:space="preserve">
<style type="text/css">
	.st0{fill:#FFFFFF;}
</style>
<title>アートボード 1</title>
<g>
	<g>
		<path class="st0" d="M34,1.7c-14.8,0-27,11.4-28.2,26L21,34c1.3-0.9,2.8-1.4,4.5-1.4c0.1,0,0.3,0,0.4,0l6.7-9.8v-0.1
			c0-5.9,4.8-10.7,10.7-10.7S54,16.8,54,22.7s-4.8,10.7-10.7,10.7c-0.1,0-0.2,0-0.2,0l-9.6,6.9c0,0.1,0,0.3,0,0.4c0,4.4-3.6,8-8,8
			c-3.9,0-7.1-2.8-7.8-6.4L6.8,37.7C10.2,49.6,21.1,58.3,34,58.3c15.6,0,28.3-12.7,28.3-28.3S49.6,1.7,34,1.7z"/>
		<path class="st0" d="M23.5,44.6L20,43.2c0.6,1.3,1.7,2.4,3.1,2.9c3.1,1.3,6.6-0.2,7.9-3.2c0.6-1.5,0.6-3.1,0-4.6s-1.8-2.6-3.2-3.3
			c-1.5-0.6-3-0.6-4.4-0.1l3.6,1.5c2.3,0.9,3.3,3.5,2.4,5.8C28.4,44.5,25.8,45.6,23.5,44.6z"/>
		<path class="st0" d="M50.4,22.7c0-3.9-3.2-7.1-7.1-7.1s-7.1,3.2-7.1,7.1s3.2,7.1,7.1,7.1S50.4,26.6,50.4,22.7z M38,22.7
			c0-2.9,2.4-5.3,5.3-5.3c2.9,0,5.3,2.4,5.3,5.3S46.2,28,43.3,28S38,25.7,38,22.7z"/>
	</g>
	<g>
		<path class="st0" d="M92.4,21.1l-1.9,3.3c-1.5-1-3.4-1.6-5.2-1.6c-2,0-3.2,0.8-3.2,2.3c0,1.8,2.2,2.2,5.4,3.3
			c3.5,1.2,5.5,2.7,5.5,5.8c0,4.3-3.4,6.8-8.3,6.8c-2.4,0-5.3-0.6-7.5-2l1.4-3.7c1.8,1,4,1.5,5.9,1.5c2.6,0,3.8-1,3.8-2.4
			c0-1.6-1.9-2.1-4.9-3.1c-3.5-1.2-5.8-2.7-5.8-6.2c0-4,3.2-6.2,7.7-6.2C88.5,19,91,20,92.4,21.1z"/>
		<path class="st0" d="M107.3,23.2v17.5h-4.5V23.2h-6.5v-3.8h17.4v3.8H107.3z"/>
		<path class="st0" d="M123.1,23.2V28h8.5v3.8h-8.5v5h9.9v3.9h-14.4V19.4H133v3.8C133,23.2,123.1,23.2,123.1,23.2z"/>
		<path class="st0" d="M143,36.5l-1.4,4.1h-4.7l8-21.3h4.5l8.2,21.3h-4.8l-1.4-4.1H143z M147.1,24.4l-2.9,8.5h5.9L147.1,24.4z"/>
		<path class="st0" d="M180.4,27.6L174.6,40h-2.5l-5.7-12.3v13h-4.3V19.4h4.3l7.2,15.4l6.9-15.4h4.3v21.3h-4.3L180.4,27.6z"/>
		<path class="st0" d="M193.3,22c0,1.8-1.4,3-2.9,3c-1.6,0-3-1.1-3-3c0-1.8,1.4-3,3-3C192,19.1,193.3,20.2,193.3,22z M187.9,22
			c0,1.5,1.1,2.5,2.5,2.5s2.4-1,2.4-2.5s-1.1-2.5-2.4-2.5C189,19.6,187.9,20.5,187.9,22z M190.4,20.5c0.8,0,1,0.4,1,0.8
			s-0.2,0.7-0.5,0.8l0.7,1.3H191l-0.6-1.1h-0.6v1.1h-0.5v-2.9C189.3,20.5,190.4,20.5,190.4,20.5z M189.9,21.9h0.5
			c0.3,0,0.5-0.2,0.5-0.5s-0.1-0.4-0.5-0.4h-0.5V21.9z"/>
	</g>
</g>
</svg>
